<svg id="SvgjsSvg1001" width="288" height="288" xmlns="http://www.w3.org/2000/svg" version="1.1" xmlns:xlink="http://www.w3.org/1999/xlink" xmlns:svgjs="http://svgjs.com/svgjs"><defs id="SvgjsDefs1002"></defs><g id="SvgjsG1008" transform="matrix(1,0,0,1,0,0)"><svg xmlns="http://www.w3.org/2000/svg" width="288" height="288" viewBox="0 0 512 512"><path d="M384,480H56v16H392a8,8,0,0,0,8-8V56H384Z" fill="#ffffff" class="color000 svgShape"></path><path d="M285.657,461.657l80-80A8,8,0,0,0,368,376V24a8,8,0,0,0-8-8H24a8,8,0,0,0-8,8V456a8,8,0,0,0,8,8H280A8,8,0,0,0,285.657,461.657ZM288,436.687V384h52.687ZM32,32H352V368H280a8,8,0,0,0-8,8v72H32Z" fill="#ffffff" class="color000 svgShape"></path><rect width="160" height="16" x="56" y="200" fill="#ffffff" class="color000 svgShape"></rect><rect width="160" height="16" x="56" y="240" fill="#ffffff" class="color000 svgShape"></rect><rect width="160" height="16" x="56" y="280" fill="#ffffff" class="color000 svgShape"></rect><rect width="160" height="16" x="56" y="320" fill="#ffffff" class="color000 svgShape"></rect><rect width="160" height="16" x="56" y="360" fill="#ffffff" class="color000 svgShape"></rect><rect width="160" height="16" x="56" y="400" fill="#ffffff" class="color000 svgShape"></rect><rect width="96" height="16" x="232" y="200" fill="#ffffff" class="color000 svgShape"></rect><rect width="96" height="16" x="232" y="240" fill="#ffffff" class="color000 svgShape"></rect><rect width="96" height="16" x="232" y="280" fill="#ffffff" class="color000 svgShape"></rect><rect width="96" height="16" x="232" y="320" fill="#ffffff" class="color000 svgShape"></rect><rect width="24" height="16" x="232" y="360" fill="#ffffff" class="color000 svgShape"></rect><rect width="24" height="16" x="232" y="400" fill="#ffffff" class="color000 svgShape"></rect><path d="M64,176h88a8,8,0,0,0,8-8V64a8,8,0,0,0-8-8H64a8,8,0,0,0-8,8V168A8,8,0,0,0,64,176Zm35.155-51.925a12,12,0,1,1,17.69,0A8,8,0,0,0,120.6,137.18,32.1,32.1,0,0,1,142.97,160H73.03A32.1,32.1,0,0,1,95.4,137.18a8,8,0,0,0,3.759-13.105ZM144,72v60.265a47.9,47.9,0,0,0-9.672-6.749,28,28,0,1,0-52.656,0A47.9,47.9,0,0,0,72,132.265V72Z" fill="#ffffff" class="color000 svgShape"></path><rect width="48" height="16" x="176" y="72" fill="#ffffff" class="color000 svgShape"></rect><rect width="152" height="16" x="176" y="112" fill="#ffffff" class="color000 svgShape"></rect><rect width="80" height="16" x="176" y="152" fill="#ffffff" class="color000 svgShape"></rect><rect width="56" height="16" x="272" y="152" fill="#ffffff" class="color000 svgShape"></rect><rect width="32" height="16" x="296" y="56" fill="#ffffff" class="color000 svgShape"></rect><rect width="16" height="16" x="264" y="56" fill="#ffffff" class="color000 svgShape"></rect><path d="M472,112h-8v-8a24,24,0,0,0-48,0V392a7.949,7.949,0,0,0,.851,3.575l-.006,0,16,32a8,8,0,0,0,14.31,0l16-32-.006,0A7.949,7.949,0,0,0,464,392V128h8a8.009,8.009,0,0,1,8,8v96h16V136A24.028,24.028,0,0,0,472,112ZM440,96a8.009,8.009,0,0,1,8,8v8H432v-8A8.009,8.009,0,0,1,440,96Zm8,288H432V280h16Zm0-120H432V248h16ZM436.944,400h6.112L440,406.111ZM448,232H432V128h16Z" fill="#ffffff" class="color000 svgShape"></path></svg></g></svg>