<svg id="SvgjsSvg1043" width="288" height="288" xmlns="http://www.w3.org/2000/svg" version="1.1" xmlns:xlink="http://www.w3.org/1999/xlink" xmlns:svgjs="http://svgjs.com/svgjs"><defs id="SvgjsDefs1044"></defs><g id="SvgjsG1045"><svg xmlns="http://www.w3.org/2000/svg" width="288" height="288" viewBox="0 0 100 100"><path d="m 18,959.36217 0,86.00003 64,0 0,-70.00003 -14,0 c -1.0837,-0.011 -1.99,-1.0255 -2,-2 l 0,-14 -48,0 z m 52,2 0,10 10,0 -10,-10 z m -20,15 c 3.3137,0 6,2.6863 6,6 0,3.3137 -2.6863,6.00002 -6,6.00002 -3.3137,0 -6,-2.68632 -6,-6.00002 0,-3.3137 2.6863,-6 6,-6 z m 0,14.00002 c 6,0 13,2 13,10.00001 l -26,0 c 0,-8.00001 7,-10.00001 13,-10.00001 z m -20,17.00001 40,0 c 1.1046,0 2,0.8954 2,2 0,1.1046 -0.8954,2 -2,2 l -40,0 c -1.1046,0 -2,-0.8954 -2,-2 0,-1.1046 0.8954,-2 2,-2 z m 0,12 40,0 c 1.1046,0 2,0.8954 2,2 0,1.1046 -0.8954,2 -2,2 l -40,0 c -1.1046,0 -2,-0.8954 -2,-2 0,-1.1046 0.8954,-2 2,-2 z m 0,12 40,0 c 1.1046,0 2,0.8954 2,2 0,1.1046 -0.8954,2 -2,2 l -40,0 c -1.1046,0 -2,-0.8954 -2,-2 0,-1.1046 0.8954,-2 2,-2 z" color="#000" enable-background="accumulate" overflow="visible" transform="translate(0 -952.362)" fill="#ffffff" class="color000 svgShape"></path></svg></g></svg>