<svg id="SvgjsSvg1060" width="288" height="288" xmlns="http://www.w3.org/2000/svg" version="1.1" xmlns:xlink="http://www.w3.org/1999/xlink" xmlns:svgjs="http://svgjs.com/svgjs"><defs id="SvgjsDefs1061"></defs><g id="SvgjsG1062"><svg xmlns="http://www.w3.org/2000/svg" width="288" height="288" viewBox="0 0 16.933 16.933"><path d="m 10.448657,280.59627 a 0.1984322,0.1984322 0 0 0 -0.02666,0.002 H 2.7127863 a 0.1984322,0.1984322 0 0 0 -0.19849,0.19845 v 15.47616 a 0.1984322,0.1984322 0 0 0 0.19849,0.19833 H 14.220586 a 0.1984322,0.1984322 0 0 0 0.198451,-0.19833 v -11.70641 a 0.1984322,0.1984322 0 0 0 -2.25e-4,-0.004 0.19843442,0.19843442 0 0 0 -5.25e-4,-0.0101 0.1984322,0.1984322 0 0 0 -8.93e-4,-0.01 0.19843442,0.19843442 0 0 0 -0.0015,-0.01 0.1984322,0.1984322 0 0 0 -0.002,-0.0101 0.19843442,0.19843442 0 0 0 -0.0023,-0.009 0.1984322,0.1984322 0 0 0 -0.0029,-0.01 0.19843442,0.19843442 0 0 0 -0.0036,-0.01 0.1984322,0.1984322 0 0 0 -0.0034,-0.008 0.19843442,0.19843442 0 0 0 -0.005,-0.0103 0.1984322,0.1984322 0 0 0 -0.0039,-0.007 0.19843442,0.19843442 0 0 0 -0.0063,-0.0103 0.1984322,0.1984322 0 0 0 -0.0041,-0.006 0.19843442,0.19843442 0 0 0 -0.0077,-0.0101 0.1984322,0.1984322 0 0 0 -0.0046,-0.006 0.19843442,0.19843442 0 0 0 -0.0091,-0.0101 l -3.769758,-3.76976 a 0.1984322,0.1984322 0 0 0 -0.0019,-0.002 0.1984322,0.1984322 0 0 0 -2.25e-4,-2.2e-4 0.1984322,0.1984322 0 0 0 -6e-4,-5.3e-4 0.1984322,0.1984322 0 0 0 -0.139741,-0.0576 z m 0.200505,0.67945 3.092442,3.09248 h -3.092442 z m -4.5613917,0.51308 c 0.655131,0 1.190475,0.53534 1.190474,1.19047 0,0.65513 -0.535343,1.19048 -1.190474,1.19048 -0.65513,0 -1.190473,-0.53535 -1.190474,-1.19048 0,-0.65513 0.535344,-1.19047 1.190474,-1.19047 z m 3.372971,0 H 10.25443 v 0.39679 H 9.4607413 c -0.270154,0.006 -0.270154,-0.40249 0,-0.39679 z m 0,1.19047 H 10.25443 v 0.39679 H 9.4607413 c -0.270154,0.006 -0.270154,-0.40248 0,-0.39679 z m 0,1.19048 H 10.25443 v 0.39678 H 9.4607413 c -0.270154,0.006 -0.270154,-0.40248 0,-0.39678 z m -3.372971,0.19845 c 1.315614,0 2.380948,1.06533 2.380948,2.38095 a 0.1984322,0.1984322 0 0 1 -0.198451,0.19833 h -4.36511 a 0.1984322,0.1984322 0 0 1 -0.198335,-0.19833 c 0,-1.31562 1.065335,-2.38095 2.380948,-2.38095 z m 3.372971,0.99202 h 3.5714227 a 0.1984322,0.1984322 0 1 1 0,0.39679 H 9.4607413 a 0.1984322,0.1984322 0 1 1 0,-0.39679 z m 0,1.19048 h 3.5714227 a 0.1984322,0.1984322 0 1 1 0,0.39678 H 9.4607413 a 0.1984322,0.1984322 0 1 1 0,-0.39678 z m -5.555584,1.19047 h 2.380948 a 0.1984322,0.1984322 0 1 1 0,0.39679 h -2.380948 a 0.1984322,0.1984322 0 1 1 0,-0.39679 z m 0,1.19047 h 9.1270067 a 0.1984322,0.1984322 0 1 1 0,0.39679 H 3.9051573 a 0.1984322,0.1984322 0 1 1 0,-0.39679 z m 0,1.19048 h 9.1270067 a 0.1984322,0.1984322 0 1 1 0,0.39678 H 3.9051573 a 0.1984322,0.1984322 0 1 1 0,-0.39678 z m 0,1.19047 h 9.1270067 a 0.1984322,0.1984322 0 1 1 0,0.39679 H 3.9051573 a 0.1984322,0.1984322 0 1 1 0,-0.39679 z m 0,1.19048 h 2.380948 a 0.1984322,0.1984322 0 1 1 0,0.39678 h -2.380948 a 0.1984322,0.1984322 0 1 1 0,-0.39678 z m 0,1.19047 h 9.1270067 a 0.1984322,0.1984322 0 1 1 0,0.39679 H 3.9051573 a 0.1984322,0.1984322 0 1 1 0,-0.39679 z m 0,1.19047 h 9.1270067 a 0.1984322,0.1984322 0 1 1 0,0.39679 H 3.9051573 a 0.1984322,0.1984322 0 1 1 0,-0.39679 z" color="#000" enable-background="accumulate" font-family="sans-serif" font-weight="400" overflow="visible" paint-order="fill markers stroke" transform="translate(0 -280.067)" style="line-height:normal;font-variant-ligatures:normal;font-variant-position:normal;font-variant-caps:normal;font-variant-numeric:normal;font-variant-alternates:normal;font-feature-settings:normal;text-indent:0;text-align:start;text-decoration-line:none;text-decoration-style:solid;text-decoration-color:#000;text-transform:none;text-orientation:mixed;white-space:normal;shape-padding:0;isolation:auto;mix-blend-mode:normal;solid-color:#000;solid-opacity:1" fill="#ffffff" class="color000 svgShape"></path></svg></g></svg>