<svg id="SvgjsSvg1001" width="288" height="288" xmlns="http://www.w3.org/2000/svg" version="1.1" xmlns:xlink="http://www.w3.org/1999/xlink" xmlns:svgjs="http://svgjs.com/svgjs"><defs id="SvgjsDefs1002"></defs><g id="SvgjsG1008" transform="matrix(1,0,0,1,0,0)"><svg xmlns="http://www.w3.org/2000/svg" width="288" height="288" viewBox="0 0 64 64"><path d="M22,14c-3.054,0-5.583,3.059-5.953,7H27.953C27.583,17.059,25.054,14,22,14Z" fill="#c5247e" class="color000 svgShape"></path><polygon points="36 5.414 36 21 51.586 21 36 5.414" fill="#c5247e" class="color000 svgShape"></polygon><circle cx="22" cy="10" r="2" fill="#c5247e" class="color000 svgShape"></circle><path d="M35,23a1,1,0,0,1-1-1V4H11V60H53V23ZM19.071,12.7a4,4,0,1,1,5.858,0C27.894,14.169,30,17.779,30,22a1,1,0,0,1-1,1H15a1,1,0,0,1-1-1C14,17.779,16.106,14.169,19.071,12.7ZM32,53H14a1,1,0,0,1,0-2H32a1,1,0,0,1,0,2Zm18,5H40a1,1,0,0,1,0-2H50a1,1,0,0,1,0,2Zm0-5H46a1,1,0,0,1,0-2h4a1,1,0,0,1,0,2Zm0-5H14a1,1,0,0,1,0-2H50a1,1,0,0,1,0,2Zm0-5H14a1,1,0,0,1,0-2H50a1,1,0,0,1,0,2Zm0-5H14a1,1,0,0,1,0-2H50a1,1,0,0,1,0,2Zm0-5H14a1,1,0,0,1,0-2H50a1,1,0,0,1,0,2Zm0-5H22a1,1,0,0,1,0-2H50a1,1,0,0,1,0,2Z" fill="#c5247e" class="color000 svgShape"></path></svg></g></svg>