<svg id="SvgjsSvg1001" width="288" height="288" xmlns="http://www.w3.org/2000/svg" version="1.1" xmlns:xlink="http://www.w3.org/1999/xlink" xmlns:svgjs="http://svgjs.com/svgjs"><defs id="SvgjsDefs1002"></defs><g id="SvgjsG1008" transform="matrix(1,0,0,1,0,0)"><svg xmlns="http://www.w3.org/2000/svg" xmlns:svgjs="http://svgjs.com/svgjs" xmlns:xlink="http://www.w3.org/1999/xlink" width="288" height="288"><svg xmlns="http://www.w3.org/2000/svg" width="288" height="288" enable-background="new 0 0 100 100" viewBox="0 0 100 100"><path fill="#c5247e" d="M50,16.252H25.251v20.249H50V16.252z M45.5,32.001H29.751V20.752H45.5V32.001z" class="color000 svgShape colorfff"></path><path fill="#c5247e" d="M85.356,31.97c0.097-0.169,0.223-0.314,0.299-0.497c0.696-1.683,0.312-3.616-0.976-4.904L64.431,6.321   c-0.86-0.861-2.012-1.318-3.183-1.318c-0.58,0-1.165,0.112-1.72,0.343c-0.182,0.075-0.328,0.202-0.497,0.299   c-0.671-0.398-1.445-0.642-2.282-0.642H23.002c-4.962,0-8.999,4.036-8.999,8.999v71.996c0,4.963,4.037,8.999,8.999,8.999h53.997   c4.962,0,8.999-4.036,8.999-8.999V34.251C85.998,33.414,85.754,32.64,85.356,31.97z M81.498,85.998c0,2.485-2.015,4.5-4.5,4.5   H23.002c-2.485,0-4.5-2.015-4.5-4.5V14.002c0-2.485,2.015-4.5,4.5-4.5H56.75v15.749v4.5c0,2.485,2.015,4.5,4.5,4.5h4.5h15.749   V85.998z M65.749,29.751c-2.485,0-4.5-2.015-4.5-4.5V9.502l20.249,20.249H65.749z" class="color000 svgShape colorfff"></path><rect width="33.748" height="4.5" x="25.251" y="50" fill="#c5247e" class="color000 svgShape colorfff"></rect><rect width="49.497" height="4.5" x="25.251" y="41.001" fill="#c5247e" class="color000 svgShape colorfff"></rect><rect width="49.497" height="4.5" x="25.251" y="58.999" fill="#c5247e" class="color000 svgShape colorfff"></rect><rect width="33.748" height="4.5" x="25.251" y="67.999" fill="#c5247e" class="color000 svgShape colorfff"></rect><rect width="49.497" height="4.5" x="25.251" y="76.998" fill="#c5247e" class="color000 svgShape colorfff"></rect></svg></svg></g></svg>