<svg height='100px' width='100px'  fill="#000000" xmlns:dc="http://purl.org/dc/elements/1.1/" xmlns:cc="http://creativecommons.org/ns#" xmlns:rdf="http://www.w3.org/1999/02/22-rdf-syntax-ns#" xmlns:svg="http://www.w3.org/2000/svg" xmlns="http://www.w3.org/2000/svg" xmlns:sodipodi="http://sodipodi.sourceforge.net/DTD/sodipodi-0.dtd" xmlns:inkscape="http://www.inkscape.org/namespaces/inkscape" version="1.1" x="0px" y="0px" viewBox="0 0 100 100"><g transform="translate(0,-952.36218)"><path style="color:#000000;enable-background:accumulate;" d="m 18,959.36217 0,86.00003 64,0 0,-70.00003 -14,0 c -1.0837,-0.011 -1.99,-1.0255 -2,-2 l 0,-14 -48,0 z m 52,2 0,10 10,0 -10,-10 z m -20,15 c 3.3137,0 6,2.6863 6,6 0,3.3137 -2.6863,6.00002 -6,6.00002 -3.3137,0 -6,-2.68632 -6,-6.00002 0,-3.3137 2.6863,-6 6,-6 z m 0,14.00002 c 6,0 13,2 13,10.00001 l -26,0 c 0,-8.00001 7,-10.00001 13,-10.00001 z m -20,17.00001 40,0 c 1.1046,0 2,0.8954 2,2 0,1.1046 -0.8954,2 -2,2 l -40,0 c -1.1046,0 -2,-0.8954 -2,-2 0,-1.1046 0.8954,-2 2,-2 z m 0,12 40,0 c 1.1046,0 2,0.8954 2,2 0,1.1046 -0.8954,2 -2,2 l -40,0 c -1.1046,0 -2,-0.8954 -2,-2 0,-1.1046 0.8954,-2 2,-2 z m 0,12 40,0 c 1.1046,0 2,0.8954 2,2 0,1.1046 -0.8954,2 -2,2 l -40,0 c -1.1046,0 -2,-0.8954 -2,-2 0,-1.1046 0.8954,-2 2,-2 z" fill="#000000" stroke="none" marker="none" visibility="visible" display="inline" overflow="visible"></path></g></svg>