<svg height='100px' width='100px'  fill="#000000" xmlns:dc="http://purl.org/dc/elements/1.1/" xmlns:cc="http://creativecommons.org/ns#" xmlns:rdf="http://www.w3.org/1999/02/22-rdf-syntax-ns#" xmlns:svg="http://www.w3.org/2000/svg" xmlns="http://www.w3.org/2000/svg" xmlns:sodipodi="http://sodipodi.sourceforge.net/DTD/sodipodi-0.dtd" xmlns:inkscape="http://www.inkscape.org/namespaces/inkscape" viewBox="0 0 8.4666667 8.4666669" version="1.1" x="0px" y="0px"><svg:g><svg:path style="color:#000000;font-style:normal;font-variant:normal;font-weight:normal;font-stretch:normal;font-size:medium;line-height:normal;font-family:sans-serif;font-variant-ligatures:normal;font-variant-position:normal;font-variant-caps:normal;font-variant-numeric:normal;font-variant-alternates:normal;font-feature-settings:normal;text-indent:0;text-align:start;text-decoration:none;text-decoration-line:none;text-decoration-style:solid;text-decoration-color:#000000;letter-spacing:normal;word-spacing:normal;text-transform:none;writing-mode:lr-tb;direction:ltr;text-orientation:mixed;dominant-baseline:auto;baseline-shift:baseline;text-anchor:start;white-space:normal;shape-padding:0;clip-rule:nonzero;display:inline;overflow:visible;visibility:visible;opacity:1;isolation:auto;mix-blend-mode:normal;color-interpolation:sRGB;color-interpolation-filters:linearRGB;solid-color:#000000;solid-opacity:1;vector-effect:none;fill:#000000;fill-opacity:1;fill-rule:nonzero;stroke:none;stroke-width:0.52916664;stroke-linecap:round;stroke-linejoin:round;stroke-miterlimit:4;stroke-dasharray:none;stroke-dashoffset:0;stroke-opacity:1;color-rendering:auto;image-rendering:auto;shape-rendering:auto;text-rendering:auto;enable-background:accumulate" d="M 1.3217561,1.4874659e-5 A 0.26460979,0.26460979 0 0 0 1.0582061,0.26562987 V 8.2031299 a 0.26460979,0.26460979 0 0 0 0.26355,0.263551 h 5.820318 a 0.26460979,0.26460979 0 0 0 0.265615,-0.263551 v -6.152595 a 0.26460979,0.26460979 0 0 0 -0.02066,-0.124542 0.26460979,0.26460979 0 0 0 -0.01138,-0.02376 0.26460979,0.26460979 0 0 0 -0.01394,-0.02222 0.26460979,0.26460979 0 0 0 -0.01241,-0.01654 0.26460979,0.26460979 0 0 0 -0.0036,-0.0047 0.26460979,0.26460979 0 0 0 -0.0031,-0.0036 0.26460979,0.26460979 0 0 0 -0.01291,-0.01344 L 5.5659711,0.07801387 A 0.26460979,0.26460979 0 0 0 5.3783871,-1.6125341e-5 h -0.0036 z M 1.5873731,0.52918087 h 3.525365 V 2.0293479 a 0.26460979,0.26460979 0 0 0 0.266134,0.265618 h 1.49965 v 5.642549 h -5.291149 z m 4.05505,0.373103 0.862997,0.86299603 H 5.6424231 Z M 3.4213691,1.6484929 c -0.522004,-2e-6 -0.950846,0.428839 -0.950846,0.950847 0,0.244718 0.09664,0.466878 0.250631,0.636135 -0.33575,0.226303 -0.557589,0.610184 -0.557589,1.043866 v 0.736388 a 0.26460979,0.26460979 0 0 0 0.264066,0.265618 h 1.987993 a 0.26460979,0.26460979 0 0 0 0.263549,-0.265618 v -0.736388 c 0,-0.433682 -0.221321,-0.817563 -0.557071,-1.043866 0.153992,-0.169257 0.250631,-0.391417 0.250631,-0.636135 0,-0.522005 -0.42936,-0.950847 -0.951364,-0.950847 z m 0,0.529167 c 0.236021,0 0.422197,0.185658 0.422197,0.42168 0,0.236018 -0.186176,0.422195 -0.422197,0.422195 -0.236021,0 -0.421679,-0.186177 -0.421679,-0.422195 0,-0.236022 0.185658,-0.42168 0.421679,-0.42168 z m 0,1.373042 c 0.408678,0 0.728638,0.319958 0.728638,0.728639 v 0.47232 h -1.456759 v -0.47232 c 0,-0.408681 0.319442,-0.728639 0.728121,-0.728639 z m -0.999939,2.267561 a 0.2646485,0.2646485 0 1 0 0,0.529167 h 3.623035 a 0.2646485,0.2646485 0 1 0 0,-0.529167 z m 0,1.068152 a 0.2648415,0.2648415 0 1 0 0,0.529683 h 3.623035 a 0.2648415,0.2648415 0 1 0 0,-0.529683 z"></svg:path></svg:g></svg>