<svg height='100px' width='100px'  fill="#000000" xmlns="http://www.w3.org/2000/svg" data-name="Layer 1" viewBox="0 0 100 100" x="0px" y="0px"><title>CV_inverted</title><path d="M85.35,0H11V100H88.35V0ZM30.05,3.05a5.8,5.8,0,1,1-5.8,5.8A5.8,5.8,0,0,1,30.05,3.05Zm0,13.31c6.32,0,11.59,5.4,12.85,12.6H17.21C18.46,21.76,23.73,16.36,30.05,16.36Zm12.85,77H17.21V80.5H42.9Zm0-21.83H17.21V58.67H42.9Zm37.7,21.83H48.53a1.63,1.63,0,0,1,0-3.26H80.59a1.63,1.63,0,0,1,0,3.26Zm0-9.59H48.53a1.63,1.63,0,0,1,0-3.26H80.59a1.63,1.63,0,0,1,0,3.26Zm0-12.24H48.53a1.63,1.63,0,0,1,0-3.26H80.59a1.63,1.63,0,0,1,0,3.26Zm0-9.59H48.53a1.63,1.63,0,0,1,0-3.26H80.59a1.63,1.63,0,0,1,0,3.26Zm0-14.34H18.8a1.63,1.63,0,0,1,0-3.26H80.63a1.63,1.63,0,0,1,0,3.26Zm0-9.32H18.8a1.63,1.63,0,0,1,0-3.26H80.63a1.63,1.63,0,0,1,0,3.26Zm0-9.32H48.53a1.63,1.63,0,0,1,0-3.26H80.59a1.63,1.63,0,0,1,0,3.26Zm0-9.32H48.53a1.63,1.63,0,0,1,0-3.26H80.59a1.63,1.63,0,0,1,0,3.26Z"></path></svg>