<svg id="SvgjsSvg1001" width="288" height="288" xmlns="http://www.w3.org/2000/svg" version="1.1" xmlns:xlink="http://www.w3.org/1999/xlink" xmlns:svgjs="http://svgjs.com/svgjs"><defs id="SvgjsDefs1002"></defs><g id="SvgjsG1008" transform="matrix(1,0,0,1,0,0)"><svg xmlns="http://www.w3.org/2000/svg" width="288" height="288" version="1.0" viewBox="0 0 527 614"><g transform="matrix(.1 0 0 -.1 0 614)" fill="#c5247e" class="color000 svgShape"><path d="M674 5896 c-17 -8 -40 -26 -52 -41 l-22 -28 0 -2679 c0 -2463 1-2682 16 -2708 9 -15 29 -35 44 -44 26 -15 194 -16 2027 -16 1958 0 1999 1
2027 19 16 11 35 30 42 43 11 18 13 463 14 2278 l0 2254 -452 454 c-257 257
-467 460 -485 468 -47 20 -3112 20 -3159 0z m2996 -616 c0 -421 0 -422 63
-460 30 -19 53 -20 415 -20 l382 0 0 -2090 0 -2090 -1845 0 -1845 0 0 2520 0
2520 1415 0 1415 0 0 -380z m465 -10 l220 -220 -223 0 -222 0 0 220 c0 121 1
220 3 220 1 0 101 -99 222 -220z" fill="#c5247e" class="color000 svgShape"></path><path d="M2569 4784c-116-35-217-122-272-233-30-62-32-71-32-181 0-112 1-118 34-183 21-41 56-88 92-122 171-163 417-163 588 0 238 227 144 618-172 717-70 21-173 23-238 2zm220-261c113-84 104-249-19-310-169-86-343 103-237 257 12 18 34 42 49 53 52 39 154 39 207 0zM2520 3805c-431-68-743-354-752-688-2-82 9-109 55-137 31-19 58-20 862-20 815 0 831 0 863 20 51 31 65 75 53 168-30 241-173 429-419 551-205 102-442 140-662 106zm403-269c151-45 279-121 350-208 36-44 67-99 67-118 0-7-204-10-655-10-532 0-655 2-655 13 0 16 53 102 84 136 83 92 265 181 433 211 92 17 279 5 376-24zM1389 2567c-23-15-38-37-47-65-12-37-12-46 5-79 10-20 31-46 46-57 28-21 34-21 1260-24 678-2 1250 0 1273 3 115 16 149 165 52 225-33 20-47 20-1294 20l-1261 0-34-23zM1426 1970c-100-31-122-160-37-217l34-23 1262 0 1262 0 34 23c21 14 39 38 48 63 13 37 12 44-5 79-10 21-32 48-47 59-28 21-33 21-1275 23-686 1-1260-2-1276-7zM1389 1337c-66-44-70-139-8-191l31-26 1273 0 1273 0 31 26c17 14 36 42 42 63 15 49-7 103-53 131-33 20-47 20-1294 20l-1261 0-34-23z" fill="#c5247e" class="color000 svgShape"></path></g></svg></g></svg>